<?xml version="1.0" encoding="UTF-8" standalone="no"?>
<!-- Created with Inkscape (http://www.inkscape.org/) -->

<svg
   width="273.02698"
   height="326.19009"
   viewBox="0 0 72.238387 86.304461"
   version="1.1"
   id="svg1"
   xml:space="preserve"
   xmlns="http://www.w3.org/2000/svg"
   xmlns:svg="http://www.w3.org/2000/svg"><defs
     id="defs1" /><g
     id="layer1"
     transform="translate(-405.07801,-97.314225)"><g
       id="g21"
       transform="translate(7.9119117,12.751542)"><rect
         style="opacity:1;fill:#ffffff;fill-opacity:1;stroke-width:9.24766;stroke-linecap:round;stroke-linejoin:round"
         id="rect114"
         width="72.238396"
         height="82.685776"
         x="397.16611"
         y="84.562683"
         ry="5.9136715e-07" /><path
         style="fill:#242424;fill-opacity:1;stroke-width:1.321"
         d="m 97.687306,157.79474 -14.724205,-25.50306 29.448419,-51.006162 29.44841,-1.3e-5 -14.7242,25.503075 -29.448419,1e-5 29.448419,51.00614 h 29.44841 l -14.72421,-25.50306 29.44841,-51.006165 -14.72421,-25.503066 -58.896819,1.4e-5 -44.172626,76.509207 14.724208,25.50308 z"
         id="path2" /><path
         style="fill:#ed3f58;fill-opacity:1;stroke-width:1.321"
         d="m 141.85993,183.29781 h 29.44841 l 44.17263,-76.50922 h -29.44841 z"
         id="path21" /><circle
         style="opacity:0.982353;fill:#ed3f58;fill-opacity:1;stroke-width:1.59291;stroke-linecap:round;stroke-linejoin:round"
         id="path29"
         cx="433.28531"
         cy="114.28386"
         r="11.46892" /><path
         id="rect115"
         style="opacity:1;fill:#ed425b;stroke-width:9.95813;stroke-linecap:round;stroke-linejoin:round"
         d="m 422.76626,132.24846 a 8.2842288,7.4709396 0 0 0 -8.28373,7.47051 v 31.14818 h 18.35021 0.90514 18.35021 v -31.14818 a 8.2842288,7.4709396 0 0 0 -8.28374,-7.47051 h -10.06647 -0.90514 z" /><path
         id="path114"
         style="opacity:1;fill:#ffffff;fill-opacity:1;stroke-width:5.29167;stroke-linecap:round;stroke-linejoin:round"
         d="m 430.78521,131.85512 2.00039,2.99982 -2.00039,21.92889 2.5001,3.6897 2.50011,-3.61838 -1.99988,-22.00021 1.99988,-2.99982 z" /></g></g></svg>
